<?xml version="1.0" encoding="UTF-8" standalone="no"?>
<svg
   xmlns:dc="http://purl.org/dc/elements/1.1/"
   xmlns:cc="http://creativecommons.org/ns#"
   xmlns:rdf="http://www.w3.org/1999/02/22-rdf-syntax-ns#"
   xmlns:svg="http://www.w3.org/2000/svg"
   xmlns="http://www.w3.org/2000/svg"
   xmlns:sodipodi="http://sodipodi.sourceforge.net/DTD/sodipodi-0.dtd"
   xmlns:inkscape="http://www.inkscape.org/namespaces/inkscape"
   viewBox="0 0 206.57509 107.41904"
   height="107.41904"
   width="206.57509"
   xml:space="preserve"
   version="1.1"
   id="svg2"
   inkscape:version="0.48.4 r9939"
   sodipodi:docname="Logo SUS.svg"><sodipodi:namedview
     pagecolor="#ffffff"
     bordercolor="#666666"
     borderopacity="1"
     objecttolerance="10"
     gridtolerance="10"
     guidetolerance="10"
     inkscape:pageopacity="0"
     inkscape:pageshadow="2"
     inkscape:window-width="640"
     inkscape:window-height="480"
     id="namedview3007"
     showgrid="false"
     fit-margin-top="0"
     fit-margin-left="0"
     fit-margin-right="0"
     fit-margin-bottom="0"
     inkscape:zoom="0.5904375"
     inkscape:cx="44.346259"
     inkscape:cy="85.224046"
     inkscape:window-x="0"
     inkscape:window-y="0"
     inkscape:window-maximized="0"
     inkscape:current-layer="svg2" /><metadata
     id="metadata8"><rdf:RDF><cc:Work
         rdf:about=""><dc:format>image/svg+xml</dc:format><dc:type
           rdf:resource="http://purl.org/dc/dcmitype/StillImage" /></cc:Work></rdf:RDF></metadata><defs
     id="defs6"><clipPath
       id="clipPath16"
       clipPathUnits="userSpaceOnUse"><path
         id="path18"
         d="M 0,80 500,80 500,0 0,0 0,80 z"
         inkscape:connector-curvature="0" /></clipPath></defs><g
     transform="matrix(2.8249584,0,0,-2.8249584,-606.01855,163.1583)"
     id="g10"><g
       id="g12"><g
         clip-path="url(#clipPath16)"
         id="g14"><path
           id="path20"
           style="fill:#005bab;fill-opacity:1;fill-rule:evenodd;stroke:none"
           d="m 241.222,36.686 -2.38,0.698 c -1.537,0.492 -2.585,1.959 -2.585,3.564 0,2.097 1.679,3.761 3.775,3.761 l 4.684,0 0,-1.664 -3.285,0 c -0.631,0 -1.187,-0.486 -1.187,-1.188 0,-0.42 0.28,-0.909 0.767,-1.049 l 2.309,-0.767 c 1.608,-0.488 2.444,-2.098 2.444,-3.915 0,-2.305 -1.887,-4.19 -4.192,-4.19 l -4.965,0 0,1.885 4.266,0 c 0.63,0 1.327,0.632 1.327,1.47 0,0.628 -0.349,1.186 -0.978,1.395 m -21.808,0 -2.375,0.698 c -1.468,0.492 -2.516,1.959 -2.516,3.564 0,2.097 1.676,3.761 3.773,3.761 l 4.683,0 0,-1.664 -3.283,0 c -0.631,0 -1.192,-0.486 -1.192,-1.188 0,-0.42 0.285,-0.909 0.773,-1.049 l 2.305,-0.767 c 1.537,-0.488 2.375,-2.098 2.375,-3.915 0,-2.305 -1.818,-4.19 -4.123,-4.19 l -4.962,0 0,1.885 4.264,0 c 0.628,0 1.327,0.632 1.327,1.47 0,0.628 -0.418,1.186 -1.049,1.395 m 10.832,-5.169 c -2.866,0 -5.1,2.03 -5.1,4.543 l 0,8.581 3.844,0 0,-8.933 c 0,-1.115 0.977,-2.023 2.235,-2.023 1.188,0 2.238,0.908 2.238,2.023 l 0,8.933 1.815,0 0,-8.581 c 0,-2.513 -2.236,-4.543 -5.032,-4.543"
           inkscape:connector-curvature="0" /><path
           id="path22"
           style="fill:#005bab;fill-opacity:1;fill-rule:evenodd;stroke:none"
           d="m 273.708,30.793 c 0,0 -6.629,-0.457 -12.26,0.057 0.104,-6.855 0.942,-10.365 1.079,-11.119 l 12.313,0 c -0.592,3.602 -1.053,9.416 -1.132,11.062 m -20.894,14.222 c 0.827,-0.068 8.088,-0.698 8.572,-0.698 0,0.03 11.491,-11.685 11.491,-11.685 l 14.771,0 0,12.383 -34.834,0 z m 9.623,0.727 12.403,0 0,12.014 -12.403,0 0,-12.014 z m -0.082,-3.459 0,0 -1.615,1.646 c -2.141,-0.024 -9.061,0.701 -11.289,1.086 l 0,-12.383 c 11.112,-1.097 16.936,-1.377 23.445,-1.169 l 0.108,0 -10.649,10.82 z m 11.293,-10.292 1.515,0 0,-9.63 c -0.19,1.007 -0.753,6.868 -0.686,8.741 -0.181,0.2 -0.829,0.889 -0.829,0.889"
           inkscape:connector-curvature="0" /></g></g></g></svg>